<svg id="visual" viewBox="0 0 900 600" width="900" height="600" xmlns="http://www.w3.org/2000/svg" xmlns:xlink="http://www.w3.org/1999/xlink" version="1.1"><rect x="0" y="0" width="900" height="600" fill="#241a33"></rect><path d="M0 371L21.5 382.7C43 394.3 86 417.7 128.8 427.8C171.7 438 214.3 435 257.2 424.8C300 414.7 343 397.3 385.8 389C428.7 380.7 471.3 381.3 514.2 377.3C557 373.3 600 364.7 642.8 369.7C685.7 374.7 728.3 393.3 771.2 408.7C814 424 857 436 878.5 442L900 448L900 601L878.5 601C857 601 814 601 771.2 601C728.3 601 685.7 601 642.8 601C600 601 557 601 514.2 601C471.3 601 428.7 601 385.8 601C343 601 300 601 257.2 601C214.3 601 171.7 601 128.8 601C86 601 43 601 21.5 601L0 601Z" fill="#76608a"></path><path d="M0 434L21.5 430.7C43 427.3 86 420.7 128.8 420.8C171.7 421 214.3 428 257.2 434C300 440 343 445 385.8 449C428.7 453 471.3 456 514.2 454.8C557 453.7 600 448.3 642.8 439C685.7 429.7 728.3 416.3 771.2 412.5C814 408.7 857 414.3 878.5 417.2L900 420L900 601L878.5 601C857 601 814 601 771.2 601C728.3 601 685.7 601 642.8 601C600 601 557 601 514.2 601C471.3 601 428.7 601 385.8 601C343 601 300 601 257.2 601C214.3 601 171.7 601 128.8 601C86 601 43 601 21.5 601L0 601Z" fill="#8a7ba0"></path><path d="M0 443L21.5 442.5C43 442 86 441 128.8 450.5C171.7 460 214.3 480 257.2 489.5C300 499 343 498 385.8 492.7C428.7 487.3 471.3 477.7 514.2 470C557 462.3 600 456.7 642.8 459.2C685.7 461.7 728.3 472.3 771.2 474.5C814 476.7 857 470.3 878.5 467.2L900 464L900 601L878.5 601C857 601 814 601 771.2 601C728.3 601 685.7 601 642.8 601C600 601 557 601 514.2 601C471.3 601 428.7 601 385.8 601C343 601 300 601 257.2 601C214.3 601 171.7 601 128.8 601C86 601 43 601 21.5 601L0 601Z" fill="#a096b6"></path><path d="M0 488L21.5 488.2C43 488.3 86 488.7 128.8 488.7C171.7 488.7 214.3 488.3 257.2 492C300 495.7 343 503.3 385.8 507.8C428.7 512.3 471.3 513.7 514.2 515.5C557 517.3 600 519.7 642.8 515.8C685.7 512 728.3 502 771.2 501.3C814 500.7 857 509.3 878.5 513.7L900 518L900 601L878.5 601C857 601 814 601 771.2 601C728.3 601 685.7 601 642.8 601C600 601 557 601 514.2 601C471.3 601 428.7 601 385.8 601C343 601 300 601 257.2 601C214.3 601 171.7 601 128.8 601C86 601 43 601 21.5 601L0 601Z" fill="#b7b2cc"></path><path d="M0 534L21.5 533.8C43 533.7 86 533.3 128.8 531.8C171.7 530.3 214.3 527.7 257.2 533.3C300 539 343 553 385.8 556.5C428.7 560 471.3 553 514.2 547C557 541 600 536 642.8 539.8C685.7 543.7 728.3 556.3 771.2 558.2C814 560 857 551 878.5 546.5L900 542L900 601L878.5 601C857 601 814 601 771.2 601C728.3 601 685.7 601 642.8 601C600 601 557 601 514.2 601C471.3 601 428.7 601 385.8 601C343 601 300 601 257.2 601C214.3 601 171.7 601 128.8 601C86 601 43 601 21.5 601L0 601Z" fill="#d0cee2"></path></svg>